<?xml version="1.0" encoding="UTF-8"?>
<svg width="512px" height="512px" viewBox="0 0 512 512" version="1.1" xmlns="http://www.w3.org/2000/svg" xmlns:xlink="http://www.w3.org/1999/xlink">
    <g id="aio-test-gradient-512" stroke="none" stroke-width="1" fill="none" fill-rule="evenodd">
        <rect fill="#FFFFFF" x="0" y="0" width="512" height="512"></rect>
        <g id="Group-10" transform="translate(34.516854, 0.000000)">
            <g id="Group-9">
                <rect id="Rectangle-Copy-15" fill="#0094A6" x="0" y="120.808989" width="442.966292" height="391.191011" rx="4"></rect>
                <path d="M32.7640449,60.4044944 L410.202247,60.4044944 C412.411386,60.4044944 414.202247,62.1953554 414.202247,64.4044944 L414.202247,106.426966 L414.202247,106.426966 L28.7640449,106.426966 L28.7640449,64.4044944 C28.7640449,62.1953554 30.5549059,60.4044944 32.7640449,60.4044944 Z" id="Rectangle-Copy-16" fill="#0094A6" opacity="0.75"></path>
                <path d="M67.2808989,0 L375.685393,0 C377.894532,-4.05812251e-16 379.685393,1.790861 379.685393,4 L379.685393,46.0224719 L379.685393,46.0224719 L63.2808989,46.0224719 L63.2808989,4 C63.2808989,1.790861 65.0717599,4.05812251e-16 67.2808989,0 Z" id="Rectangle-Copy-17" fill="#0094A6" opacity="0.4"></path>
                <path d="M362.06391,254.099893 L202.906548,413.816342 C194.750247,422.001294 181.824769,422.001294 173.654866,413.816342 L98.1621564,338.058443 C90.005873,329.873491 90.005873,316.902608 98.1621564,308.704005 C106.318457,300.519054 119.243935,300.519054 127.413838,308.704005 L188.280061,369.784004 L332.810902,224.745455 C340.967202,216.560504 353.892681,216.560504 362.06255,224.745455 C370.21885,232.943717 370.21885,245.914599 362.06255,254.099893 L362.06391,254.099893 Z" id="Fill-1" fill="#FFFFFF"></path>
            </g>
        </g>
    </g>
</svg>